<?xml version="1.0" encoding="UTF-8"?>
<svg id="Layer_1" data-name="Layer 1" xmlns="http://www.w3.org/2000/svg" viewBox="0 0 154.01 52.29">
  <defs>
    <style>
      .cls-1 {
        fill: #565656;
      }

      .cls-2 {
        fill: #da1f3d;
      }
    </style>
  </defs>
  <g>
    <path class="cls-2" d="M4.53,20.14c-.47-.45-.7-1.04-.7-1.77V2.64h8.68c1.39,0,2.6.26,3.65.78,1.05.52,1.86,1.26,2.44,2.21.58.95.87,2.05.87,3.3v5.09c0,2.23-.58,3.93-1.74,5.08-1.16,1.15-2.87,1.73-5.12,1.73h-6.26c-.74,0-1.35-.22-1.82-.68M12.5,17.65c1.11,0,1.95-.32,2.52-.96.57-.64.86-1.58.86-2.83v-4.78c0-.99-.32-1.78-.96-2.38-.64-.6-1.48-.9-2.52-.9h-4.99v11.84h5.09Z"/>
    <path class="cls-1" d="M22.79,20.01c-.83-.68-1.25-1.57-1.25-2.68v-.96c0-1.09.43-1.97,1.3-2.64.87-.67,2.01-1,3.43-1h1.58c.45,0,.94.06,1.45.18.52.12,1,.29,1.43.49v-1.35c0-.43-.14-.78-.43-1.05-.29-.27-.66-.4-1.13-.4h-2.23c-.48,0-.87.11-1.17.34-.29.23-.44.53-.44.91h-3.43c0-1.26.46-2.28,1.39-3.05.93-.77,2.14-1.16,3.65-1.16h2.23c1.52,0,2.75.4,3.69,1.21.94.81,1.4,1.87,1.4,3.21v8.75h-3.27v-1.56c-.42.54-.93.97-1.53,1.29-.61.32-1.2.48-1.79.48h-1.61c-1.35,0-2.44-.34-3.27-1.01M27.93,18.33c.64,0,1.21-.16,1.71-.49.5-.33.87-.77,1.09-1.32v-.44c-.28-.21-.66-.37-1.16-.49-.49-.12-1.02-.18-1.57-.18h-1.64c-.42,0-.75.1-1.01.31-.26.21-.39.49-.39.83v.68c0,.33.14.6.43.81.29.21.66.31,1.13.31h1.4Z"/>
    <path class="cls-1" d="M37.73,6.05c-.41-.39-.61-.9-.61-1.55s.2-1.16.61-1.55c.41-.39.95-.58,1.62-.58s1.22.19,1.62.58c.41.39.61.9.61,1.55s-.2,1.16-.61,1.55c-.41.39-.95.58-1.62.58s-1.22-.19-1.62-.58M37.59,7.86h3.53v12.96h-3.53V7.86Z"/>
    <path class="cls-1" d="M46.92,19.78c-.71-.69-1.06-1.77-1.06-3.22v-5.69h-2.29v-3.01h2.39v-3.92h3.43v3.92h3.38v3.01h-3.38v5.53c0,.49.09.84.27,1.07.18.23.47.34.87.34h2.23v3.01h-2.49c-1.52,0-2.64-.35-3.35-1.04"/>
    <path class="cls-1" d="M55.77,20.01c-.83-.68-1.25-1.57-1.25-2.68v-.96c0-1.09.43-1.97,1.3-2.64.87-.67,2.01-1,3.43-1h1.58c.45,0,.94.06,1.45.18.52.12,1,.29,1.43.49v-1.35c0-.43-.14-.78-.43-1.05-.29-.27-.66-.4-1.13-.4h-2.23c-.48,0-.87.11-1.17.34-.29.23-.44.53-.44.91h-3.43c0-1.26.46-2.28,1.39-3.05.93-.77,2.14-1.16,3.65-1.16h2.23c1.52,0,2.75.4,3.69,1.21.94.81,1.4,1.87,1.4,3.21v8.75h-3.27v-1.56c-.42.54-.93.97-1.53,1.29-.61.32-1.2.48-1.79.48h-1.61c-1.35,0-2.44-.34-3.27-1.01M60.92,18.33c.64,0,1.21-.16,1.71-.49.5-.33.87-.77,1.09-1.32v-.44c-.28-.21-.66-.37-1.16-.49-.49-.12-1.02-.18-1.57-.18h-1.64c-.42,0-.75.1-1.01.31-.26.21-.39.49-.39.83v.68c0,.33.14.6.43.81.29.21.66.31,1.13.31h1.4Z"/>
    <path class="cls-1" d="M70.11,7.86h3.27v1.56c.38-.54.87-.97,1.48-1.29.61-.32,1.21-.48,1.82-.48h1.56c1.39,0,2.5.43,3.34,1.3.84.87,1.26,2.01,1.26,3.43v8.44h-3.53v-8.31c0-.54-.14-.97-.43-1.3-.29-.33-.65-.49-1.1-.49h-1.56c-.61,0-1.15.22-1.62.66-.48.44-.79,1.02-.95,1.73v7.71h-3.53V7.86Z"/>
  </g>
  <g>
    <path class="cls-2" d="M4.53,43.96c-.47-.45-.7-1.04-.7-1.77v-15.74h13.87v3.12H7.41v4.21h9.51v3.12H7.41v4.62h10.29v3.12H6.34c-.74,0-1.35-.22-1.82-.68"/>
    <path class="cls-1" d="M20.03,31.68h3.27v1.56c.38-.54.87-.97,1.48-1.29.61-.32,1.21-.48,1.82-.48h1.56c1.39,0,2.5.43,3.34,1.3.84.87,1.26,2.01,1.26,3.43v8.44h-3.53v-8.31c0-.54-.14-.97-.43-1.3-.29-.33-.65-.49-1.1-.49h-1.56c-.61,0-1.15.22-1.62.66-.48.44-.79,1.02-.95,1.73v7.71h-3.53v-12.96Z"/>
    <path class="cls-1" d="M37.2,48.73c-.92-.79-1.43-1.82-1.53-3.1h3.48c.03.38.19.69.47.92.28.23.62.35,1.04.35h2.34c.54,0,.97-.22,1.31-.66.34-.44.51-1.02.51-1.73v-1.22c-.35.38-.77.68-1.26.91-.49.23-.97.34-1.42.34h-1.79c-1.58,0-2.84-.47-3.81-1.4-.96-.93-1.44-2.16-1.44-3.69v-2.65c0-1.06.22-1.99.68-2.79.45-.81,1.08-1.43,1.9-1.87.81-.44,1.75-.66,2.81-.66h1.51c.59,0,1.16.14,1.73.42.56.28,1.02.64,1.36,1.09v-1.3h3.27v12.83c0,1.07-.22,2.02-.66,2.83-.44.81-1.07,1.45-1.88,1.9-.81.45-1.75.68-2.81.68h-2.34c-1.39,0-2.54-.39-3.45-1.18M42.37,41.55c.66,0,1.21-.27,1.66-.82.45-.55.71-1.26.78-2.14v-1.79c-.07-.69-.3-1.25-.7-1.66s-.9-.62-1.51-.62h-1.82c-.64,0-1.16.23-1.56.7-.4.47-.6,1.08-.6,1.84v2.13c0,.71.18,1.28.55,1.71.36.43.83.65,1.4.65h1.79Z"/>
    <path class="cls-1" d="M51.97,29.87c-.41-.39-.61-.9-.61-1.55s.2-1.16.61-1.55c.41-.39.95-.58,1.62-.58s1.22.19,1.62.58c.41.39.61.9.61,1.55s-.2,1.16-.61,1.55c-.41.39-.95.58-1.62.58s-1.22-.19-1.62-.58M51.82,31.68h3.53v12.96h-3.53v-12.96Z"/>
    <path class="cls-1" d="M58.84,31.68h3.27v1.56c.38-.54.87-.97,1.48-1.29.61-.32,1.21-.48,1.82-.48h1.56c1.38,0,2.5.43,3.34,1.3.84.87,1.26,2.01,1.26,3.43v8.44h-3.53v-8.31c0-.54-.14-.97-.43-1.3-.29-.33-.65-.49-1.1-.49h-1.56c-.61,0-1.15.22-1.62.66-.48.44-.79,1.02-.95,1.73v7.71h-3.53v-12.96Z"/>
    <path class="cls-1" d="M76.57,44.24c-.84-.41-1.49-.98-1.96-1.71-.47-.74-.7-1.58-.7-2.53v-3.35c0-1.02.23-1.92.7-2.7.47-.78,1.12-1.39,1.96-1.82.84-.43,1.81-.65,2.9-.65h2.08c1.66,0,3,.47,4,1.4,1,.94,1.51,2.18,1.51,3.74v2.75h-9.61v.62c0,.57.18,1.03.55,1.38.36.35.86.52,1.48.52h2.03c.61,0,1.1-.13,1.47-.4.37-.27.56-.62.56-1.05h3.48c0,.87-.23,1.64-.7,2.31-.47.68-1.12,1.19-1.96,1.56-.84.36-1.81.55-2.9.55h-1.97c-1.09,0-2.06-.2-2.9-.61M83.57,36.82v-.21c0-.68-.18-1.22-.55-1.62-.36-.41-.85-.61-1.45-.61h-2.1c-.62,0-1.13.22-1.51.65-.38.43-.57,1-.57,1.71v.08h6.18Z"/>
    <path class="cls-1" d="M91.58,44.24c-.84-.41-1.49-.98-1.96-1.71-.47-.74-.7-1.58-.7-2.53v-3.35c0-1.02.23-1.92.7-2.7.47-.78,1.12-1.39,1.96-1.82.84-.43,1.81-.65,2.9-.65h2.08c1.66,0,3,.47,4,1.4,1,.94,1.51,2.18,1.51,3.74v2.75h-9.61v.62c0,.57.18,1.03.55,1.38.36.35.86.52,1.48.52h2.03c.61,0,1.1-.13,1.47-.4.37-.27.56-.62.56-1.05h3.48c0,.87-.23,1.64-.7,2.31-.47.68-1.12,1.19-1.96,1.56-.84.36-1.81.55-2.9.55h-1.97c-1.09,0-2.06-.2-2.9-.61M98.58,36.82v-.21c0-.68-.18-1.22-.55-1.62-.36-.41-.85-.61-1.45-.61h-2.1c-.62,0-1.13.22-1.51.65-.38.43-.57,1-.57,1.71v.08h6.18Z"/>
    <path class="cls-1" d="M104.45,31.68h3.27v1.66c.33-.5.8-.91,1.42-1.23.61-.32,1.26-.48,1.94-.48h1.77v3.07h-1.77c-.92,0-1.66.28-2.23.83-.57.55-.86,1.26-.86,2.13v6.99h-3.53v-12.96Z"/>
    <path class="cls-1" d="M115.01,29.87c-.41-.39-.61-.9-.61-1.55s.2-1.16.61-1.55c.41-.39.95-.58,1.62-.58s1.22.19,1.62.58c.41.39.61.9.61,1.55s-.2,1.16-.61,1.55c-.41.39-.95.58-1.62.58s-1.22-.19-1.62-.58M114.86,31.68h3.53v12.96h-3.53v-12.96Z"/>
    <path class="cls-1" d="M121.88,31.68h3.27v1.56c.38-.54.87-.97,1.48-1.29.61-.32,1.21-.48,1.82-.48h1.56c1.38,0,2.5.43,3.34,1.3.84.87,1.26,2.01,1.26,3.43v8.44h-3.53v-8.31c0-.54-.14-.97-.43-1.3-.29-.33-.65-.49-1.1-.49h-1.56c-.61,0-1.15.22-1.62.66-.48.44-.79,1.02-.95,1.73v7.71h-3.53v-12.96Z"/>
    <path class="cls-1" d="M139.05,48.73c-.92-.79-1.43-1.82-1.53-3.1h3.48c.03.38.19.69.47.92.28.23.62.35,1.04.35h2.34c.54,0,.97-.22,1.31-.66.34-.44.51-1.02.51-1.73v-1.22c-.35.38-.77.68-1.26.91-.49.23-.97.34-1.42.34h-1.79c-1.58,0-2.84-.47-3.81-1.4-.96-.93-1.44-2.16-1.44-3.69v-2.65c0-1.06.22-1.99.68-2.79.45-.81,1.08-1.43,1.9-1.87.81-.44,1.75-.66,2.81-.66h1.51c.59,0,1.16.14,1.73.42.56.28,1.02.64,1.36,1.09v-1.3h3.27v12.83c0,1.07-.22,2.02-.66,2.83-.44.81-1.07,1.45-1.88,1.9-.81.45-1.75.68-2.81.68h-2.34c-1.39,0-2.54-.39-3.45-1.18M144.22,41.55c.66,0,1.21-.27,1.66-.82.45-.55.71-1.26.78-2.14v-1.79c-.07-.69-.3-1.25-.7-1.66-.4-.42-.9-.62-1.51-.62h-1.82c-.64,0-1.16.23-1.56.7-.4.47-.6,1.08-.6,1.84v2.13c0,.71.18,1.28.55,1.71.36.43.83.65,1.4.65h1.79Z"/>
  </g>
</svg>