<?xml version="1.0" encoding="UTF-8"?>
<svg id="katman_1" data-name="katman 1" xmlns="http://www.w3.org/2000/svg" viewBox="0 0 85 85">
  <defs>
    <style>
      .cls-1 {
        fill: #db213e;
      }

      .cls-2 {
        fill: #c3c4c7;
      }
    </style>
  </defs>
  <rect class="cls-1" x="73.64" y="24.03" width="10.86" height="3.5"/>
  <polygon class="cls-1" points="33.95 30.02 57.04 30.02 57.04 40.88 51.55 40.88 51.55 54.98 39.44 54.98 39.44 40.88 33.95 40.88 33.95 30.02"/>
  <path class="cls-1" d="M6.49,42.5c0-6.89,5.59-12.48,12.48-12.48h12.48v10.86h-12.48v8.3c0,.45.36.81.81.81s.81-.36.81-.81v-6.68h10.86v12.48h-12.48c-6.89,0-12.48-5.59-12.48-12.48"/>
  <path class="cls-1" d="M72.01,54.95h-.03c-6.88,0-12.45-5.57-12.45-12.45v-12.48h12.48v19.16c0,.45.36.81.81.81s.81-.36.81-.81v-19.16h10.86v24.96h-12.48v-.03Z"/>
  <rect class="cls-1" x="59.54" y="24.03" width="12.48" height="3.5"/>
  <path class="cls-2" d="M18.97,57.48h65.53v3.5H18.97C8.77,60.97.5,52.7.5,42.5s8.27-18.47,18.47-18.47h38.07v3.49H18.97c-8.27,0-14.98,6.71-14.98,14.98s6.71,14.98,14.98,14.98"/>
  <rect class="cls-1" x="73.64" y="24.03" width="10.86" height="3.5"/>
  <polygon class="cls-1" points="33.95 30.02 57.04 30.02 57.04 40.88 51.55 40.88 51.55 54.98 39.44 54.98 39.44 40.88 33.95 40.88 33.95 30.02"/>
  <path class="cls-1" d="M6.49,42.5c0-6.89,5.59-12.48,12.48-12.48h12.48v10.86h-12.48v8.3c0,.45.36.81.81.81s.81-.36.81-.81v-6.68h10.86v12.48h-12.48c-6.89,0-12.48-5.59-12.48-12.48"/>
  <path class="cls-1" d="M72.01,54.95h-.03c-6.88,0-12.45-5.57-12.45-12.45v-12.48h12.48v19.16c0,.45.36.81.81.81s.81-.36.81-.81v-19.16h10.86v24.96h-12.48v-.03Z"/>
  <rect class="cls-1" x="59.54" y="24.03" width="12.48" height="3.5"/>
  <path class="cls-2" d="M18.97,57.48h65.53v3.5H18.97C8.77,60.97.5,52.7.5,42.5s8.27-18.47,18.47-18.47h38.07v3.49H18.97c-8.27,0-14.98,6.71-14.98,14.98s6.71,14.98,14.98,14.98"/>
</svg>