<?xml version="1.0" encoding="UTF-8"?>
<svg id="katman_1" data-name="katman 1" xmlns="http://www.w3.org/2000/svg" viewBox="0 0 450 85">
  <defs>
    <style>
      .cls-1 {
        fill: #db213e;
      }

      .cls-2 {
        fill: #565656;
      }

      .cls-3 {
        fill: #c3c4c7;
      }
    </style>
  </defs>
  <path class="cls-2" d="M437.73,64.96c1.39,0,2.54.42,3.45,1.26.9.84,1.51,2.03,1.8,3.57h-10.67c.3-1.52.9-2.71,1.82-3.56.91-.85,2.11-1.27,3.61-1.27M437.78,59.36c-3.62,0-6.55,1.18-8.81,3.53-2.26,2.35-3.38,5.43-3.38,9.23s1.16,6.83,3.47,9.14c2.31,2.31,5.33,3.47,9.04,3.47,4.2,0,7.62-1.22,10.27-3.66l-3.8-4.18c-.86.73-1.83,1.3-2.91,1.71-1.08.4-2.14.61-3.18.61-1.61,0-2.96-.41-4.06-1.24-1.09-.83-1.81-2.08-2.14-3.76h17.09c.08-.61.13-1.34.13-2.19-.02-3.77-1.11-6.82-3.27-9.16-2.16-2.34-4.98-3.51-8.45-3.51M420.27,48.29h-6.49v35.83h6.49v-35.83ZM406.96,48.29h-6.49v35.83h6.49v-35.83ZM383.4,64.96c1.39,0,2.54.42,3.44,1.26.9.84,1.51,2.03,1.8,3.57h-10.67c.3-1.52.9-2.71,1.82-3.56.91-.85,2.12-1.27,3.61-1.27M383.45,59.36c-3.62,0-6.55,1.18-8.81,3.53-2.25,2.35-3.38,5.43-3.38,9.23s1.16,6.83,3.47,9.14c2.31,2.31,5.33,3.47,9.04,3.47,4.2,0,7.62-1.22,10.27-3.66l-3.81-4.18c-.86.73-1.83,1.3-2.91,1.71-1.08.4-2.14.61-3.18.61-1.61,0-2.96-.41-4.05-1.24-1.1-.83-1.81-2.08-2.14-3.76h17.09c.08-.61.13-1.34.13-2.19-.02-3.77-1.11-6.82-3.27-9.16-2.17-2.34-4.98-3.51-8.45-3.51M367.33,60.01h-8.73v-7.16h-6.5v7.16h-4.65v5.77h4.65v9.33c0,3.13.76,5.52,2.29,7.17,1.52,1.64,3.77,2.46,6.74,2.46s5.52-.85,7.99-2.54l-2.39-5.07c-1.73,1.05-3.23,1.57-4.53,1.57-1.1,0-1.97-.33-2.62-.98-.66-.65-.98-1.69-.98-3.12v-8.81h8.73v-5.77ZM344.27,61.68c-3.12-1.53-6.48-2.29-10.07-2.29-3.18,0-5.68.69-7.48,2.09-1.8,1.39-2.7,3.32-2.7,5.8,0,4.11,2.78,6.55,8.34,7.31l1.97.28c1.41.2,2.43.47,3.06.82s.95.81.95,1.39c0,1.51-1.48,2.26-4.45,2.26s-5.84-.79-8.21-2.36l-2.56,4.93c2.67,1.89,6.25,2.84,10.73,2.84,3.47,0,6.18-.74,8.13-2.22,1.96-1.47,2.94-3.47,2.94-5.97,0-3.98-2.71-6.39-8.14-7.22l-2.14-.32c-1.33-.2-2.31-.44-2.96-.71-.64-.28-.97-.73-.97-1.36,0-.68.32-1.21.95-1.6.63-.39,1.55-.59,2.76-.59,1.26.02,2.59.22,3.98.6s2.63.84,3.71,1.37l2.19-5.05ZM320.28,60.01h-7.49v-2.91c0-2.25.95-3.38,2.84-3.38,1.31,0,2.69.39,4.13,1.17l2.59-5.05c-2.17-1.44-4.64-2.16-7.41-2.16s-4.9.84-6.4,2.51c-1.49,1.67-2.24,3.96-2.24,6.84v2.98h-4.5v5.77h4.5v18.34h6.49v-18.34h7.49v-5.77ZM291.48,48.69c-1.16,0-2.14.4-2.94,1.21-.8.8-1.19,1.79-1.19,2.97s.39,2.14,1.18,2.94c.79.8,1.77,1.2,2.95,1.2s2.17-.4,2.97-1.2c.8-.8,1.21-1.77,1.21-2.94s-.4-2.15-1.21-2.96c-.8-.81-1.8-1.22-2.97-1.22M280.75,48.69c-1.16,0-2.14.4-2.94,1.21-.8.8-1.19,1.79-1.19,2.97s.4,2.14,1.19,2.94c.8.8,1.78,1.2,2.94,1.2s2.17-.4,2.97-1.2c.8-.8,1.21-1.77,1.21-2.94s-.41-2.15-1.22-2.96c-.81-.81-1.8-1.22-2.96-1.22M297.57,60.01h-6.47v13.26c0,1.84-.45,3.21-1.34,4.09-.9.89-2.09,1.33-3.58,1.33s-2.69-.44-3.58-1.33c-.9-.89-1.34-2.25-1.34-4.09v-13.26h-6.49v13.83c0,1.47.2,2.82.61,4.04.41,1.22.96,2.25,1.67,3.09.7.84,1.54,1.54,2.51,2.11.97.57,2.01.99,3.12,1.26,1.11.27,2.28.4,3.51.4,1.54,0,2.99-.22,4.33-.65,1.34-.43,2.55-1.07,3.62-1.93,1.07-.85,1.91-1.99,2.53-3.42.61-1.42.92-3.06.92-4.9v-13.83ZM267.32,59.36c-3.07,0-5.33,1.09-6.79,3.28v-2.64h-6.3v24.11h6.49v-13.14c0-1.74.46-3.08,1.38-4.02.92-.94,2.15-1.41,3.69-1.41,1.46,0,2.77.26,3.93.77l.97-6.44c-.96-.35-2.09-.52-3.38-.52M236,55.68c3.83,0,5.75,1.56,5.75,4.68s-1.92,4.68-5.75,4.68h-7.14v-9.36h7.14ZM236.17,71.38c4.06,0,7.19-.99,9.39-2.96,2.2-1.97,3.3-4.66,3.3-8.06s-1.1-6.14-3.3-8.11c-2.2-1.98-5.34-2.96-9.44-2.96h-14.21v34.83h6.94v-12.74h7.31Z"/>
  <path class="cls-2" d="M315.68,21.42h-14.7v5.67h14.7v-5.67ZM296.05,13.38h-20.4v5.77h11.74l-12.17,13.66v4.68h21.1v-5.8h-12.17l11.89-13.56v-4.75ZM271.8,13.38h-7.49v-2.91c0-2.26.95-3.38,2.84-3.38,1.31,0,2.69.39,4.13,1.17l2.59-5.05c-2.17-1.44-4.64-2.16-7.41-2.16s-4.9.84-6.39,2.51c-1.49,1.67-2.24,3.96-2.24,6.84v2.98h-4.5v5.77h4.5v18.34h6.49v-18.34h7.49v-5.77ZM244.46,37.49h9.01l-15.7-17.84,14.6-16.99h-8.71l-11.52,14.11h-3.28V2.66h-6.94v34.83h6.94v-14.33h3.21l12.39,14.33Z"/>
  <rect class="cls-1" x="161.91" y="2.66" width="23.96" height="7.71"/>
  <polygon class="cls-1" points="74.32 15.87 125.28 15.87 125.28 39.84 113.16 39.84 113.16 70.97 86.44 70.97 86.44 39.84 74.32 39.84 74.32 15.87"/>
  <path class="cls-1" d="M13.72,43.42c0-15.21,12.33-27.55,27.55-27.55h27.55v23.96h-27.55v18.32c0,.99.8,1.79,1.79,1.79s1.79-.8,1.79-1.79v-14.74h23.97v27.55h-27.55c-15.21,0-27.55-12.33-27.55-27.55"/>
  <path class="cls-1" d="M158.33,70.9h-.06c-15.17,0-27.48-12.3-27.48-27.47V15.88h27.55v42.28c0,.99.8,1.79,1.79,1.79s1.79-.8,1.79-1.79V15.88h23.96v55.09h-27.55v-.07Z"/>
  <rect class="cls-1" x="130.78" y="2.66" width="27.54" height="7.71"/>
  <path class="cls-3" d="M41.27,76.47h144.61v7.71H41.27C18.75,84.19.5,65.93.5,43.42S18.75,2.66,41.27,2.66h84.01v7.71H41.27c-18.26,0-33.06,14.8-33.06,33.06s14.8,33.05,33.06,33.05"/>
</svg>